<mxfile host="app.diagrams.net" agent="Mozilla/5.0 (Windows NT 10.0; Win64; x64; rv:136.0) Gecko/20100101 Firefox/136.0" version="28.2.5">
  <diagram name="Страница — 1" id="cka1hHKxKbjvaWri14X5">
    <mxGraphModel dx="1426" dy="757" grid="1" gridSize="10" guides="1" tooltips="1" connect="1" arrows="1" fold="1" page="1" pageScale="1" pageWidth="1654" pageHeight="2336" background="none" math="0" shadow="0">
      <root>
        <mxCell id="0" />
        <mxCell id="1" parent="0" />
        <mxCell id="p3M71BiNu2Z15mBjnupE-8" value="&lt;p style=&quot;margin:0px;margin-top:4px;text-align:center;&quot;&gt;&lt;b&gt;Block&lt;/b&gt;&lt;/p&gt;&lt;hr size=&quot;1&quot; style=&quot;border-style:solid;&quot;&gt;&lt;p style=&quot;margin:0px;margin-left:4px;&quot;&gt;-color: String; -position: Tuple; -fallSpeed: Float;&lt;/p&gt;&lt;p style=&quot;margin:0px;margin-left:4px;&quot;&gt;-cells: Cell[][];&lt;/p&gt;&lt;hr size=&quot;1&quot; style=&quot;border-style:solid;&quot;&gt;&lt;p style=&quot;margin:0px;margin-left:4px;&quot;&gt;+rotateRight(): void, +rotateLeft(): void; +drop(): void;&lt;/p&gt;" style="verticalAlign=top;align=left;overflow=fill;html=1;whiteSpace=wrap;" parent="1" vertex="1">
          <mxGeometry x="160" y="20" width="270" height="110" as="geometry" />
        </mxCell>
        <mxCell id="p3M71BiNu2Z15mBjnupE-9" value="LShape" style="swimlane;fontStyle=0;childLayout=stackLayout;horizontal=1;startSize=26;fillColor=none;horizontalStack=0;resizeParent=1;resizeParentMax=0;resizeLast=0;collapsible=1;marginBottom=0;whiteSpace=wrap;html=1;" parent="1" vertex="1">
          <mxGeometry x="30" y="36" width="90" height="78" as="geometry" />
        </mxCell>
        <mxCell id="p3M71BiNu2Z15mBjnupE-10" value="-color: String;" style="text;strokeColor=none;fillColor=none;align=left;verticalAlign=top;spacingLeft=4;spacingRight=4;overflow=hidden;rotatable=0;points=[[0,0.5],[1,0.5]];portConstraint=eastwest;whiteSpace=wrap;html=1;" parent="p3M71BiNu2Z15mBjnupE-9" vertex="1">
          <mxGeometry y="26" width="90" height="26" as="geometry" />
        </mxCell>
        <mxCell id="p3M71BiNu2Z15mBjnupE-11" value="-cells: Cell[][]" style="text;strokeColor=none;fillColor=none;align=left;verticalAlign=top;spacingLeft=4;spacingRight=4;overflow=hidden;rotatable=0;points=[[0,0.5],[1,0.5]];portConstraint=eastwest;whiteSpace=wrap;html=1;" parent="p3M71BiNu2Z15mBjnupE-9" vertex="1">
          <mxGeometry y="52" width="90" height="26" as="geometry" />
        </mxCell>
        <mxCell id="p3M71BiNu2Z15mBjnupE-15" value="RLShape" style="swimlane;fontStyle=0;childLayout=stackLayout;horizontal=1;startSize=26;fillColor=none;horizontalStack=0;resizeParent=1;resizeParentMax=0;resizeLast=0;collapsible=1;marginBottom=0;whiteSpace=wrap;html=1;" parent="1" vertex="1">
          <mxGeometry x="40" y="142" width="90" height="78" as="geometry" />
        </mxCell>
        <mxCell id="p3M71BiNu2Z15mBjnupE-16" value="-color: String;" style="text;strokeColor=none;fillColor=none;align=left;verticalAlign=top;spacingLeft=4;spacingRight=4;overflow=hidden;rotatable=0;points=[[0,0.5],[1,0.5]];portConstraint=eastwest;whiteSpace=wrap;html=1;" parent="p3M71BiNu2Z15mBjnupE-15" vertex="1">
          <mxGeometry y="26" width="90" height="26" as="geometry" />
        </mxCell>
        <mxCell id="p3M71BiNu2Z15mBjnupE-17" value="-cells: Cell[][]" style="text;strokeColor=none;fillColor=none;align=left;verticalAlign=top;spacingLeft=4;spacingRight=4;overflow=hidden;rotatable=0;points=[[0,0.5],[1,0.5]];portConstraint=eastwest;whiteSpace=wrap;html=1;" parent="p3M71BiNu2Z15mBjnupE-15" vertex="1">
          <mxGeometry y="52" width="90" height="26" as="geometry" />
        </mxCell>
        <mxCell id="p3M71BiNu2Z15mBjnupE-33" value="" style="endArrow=block;dashed=1;endFill=0;endSize=12;html=1;rounded=0;exitX=0.5;exitY=0;exitDx=0;exitDy=0;entryX=0;entryY=1;entryDx=0;entryDy=0;" parent="1" source="p3M71BiNu2Z15mBjnupE-15" target="p3M71BiNu2Z15mBjnupE-8" edge="1">
          <mxGeometry width="160" relative="1" as="geometry">
            <mxPoint x="200" y="182" as="sourcePoint" />
            <mxPoint x="360" y="182" as="targetPoint" />
          </mxGeometry>
        </mxCell>
        <mxCell id="p3M71BiNu2Z15mBjnupE-34" value="" style="endArrow=block;dashed=1;endFill=0;endSize=12;html=1;rounded=0;exitX=1;exitY=0.5;exitDx=0;exitDy=0;entryX=0;entryY=0.5;entryDx=0;entryDy=0;" parent="1" source="p3M71BiNu2Z15mBjnupE-10" target="p3M71BiNu2Z15mBjnupE-8" edge="1">
          <mxGeometry width="160" relative="1" as="geometry">
            <mxPoint x="-40" y="92" as="sourcePoint" />
            <mxPoint x="120" y="92" as="targetPoint" />
          </mxGeometry>
        </mxCell>
        <mxCell id="p3M71BiNu2Z15mBjnupE-35" value="ZShape" style="swimlane;fontStyle=0;childLayout=stackLayout;horizontal=1;startSize=26;fillColor=none;horizontalStack=0;resizeParent=1;resizeParentMax=0;resizeLast=0;collapsible=1;marginBottom=0;whiteSpace=wrap;html=1;" parent="1" vertex="1">
          <mxGeometry x="350" y="172" width="90" height="78" as="geometry" />
        </mxCell>
        <mxCell id="p3M71BiNu2Z15mBjnupE-36" value="-color: String;" style="text;strokeColor=none;fillColor=none;align=left;verticalAlign=top;spacingLeft=4;spacingRight=4;overflow=hidden;rotatable=0;points=[[0,0.5],[1,0.5]];portConstraint=eastwest;whiteSpace=wrap;html=1;" parent="p3M71BiNu2Z15mBjnupE-35" vertex="1">
          <mxGeometry y="26" width="90" height="26" as="geometry" />
        </mxCell>
        <mxCell id="p3M71BiNu2Z15mBjnupE-37" value="-cells: Cell[][]" style="text;strokeColor=none;fillColor=none;align=left;verticalAlign=top;spacingLeft=4;spacingRight=4;overflow=hidden;rotatable=0;points=[[0,0.5],[1,0.5]];portConstraint=eastwest;whiteSpace=wrap;html=1;" parent="p3M71BiNu2Z15mBjnupE-35" vertex="1">
          <mxGeometry y="52" width="90" height="26" as="geometry" />
        </mxCell>
        <mxCell id="p3M71BiNu2Z15mBjnupE-38" value="RZShape" style="swimlane;fontStyle=0;childLayout=stackLayout;horizontal=1;startSize=26;fillColor=none;horizontalStack=0;resizeParent=1;resizeParentMax=0;resizeLast=0;collapsible=1;marginBottom=0;whiteSpace=wrap;html=1;" parent="1" vertex="1">
          <mxGeometry x="460" y="142" width="90" height="78" as="geometry" />
        </mxCell>
        <mxCell id="p3M71BiNu2Z15mBjnupE-39" value="-color: String;" style="text;strokeColor=none;fillColor=none;align=left;verticalAlign=top;spacingLeft=4;spacingRight=4;overflow=hidden;rotatable=0;points=[[0,0.5],[1,0.5]];portConstraint=eastwest;whiteSpace=wrap;html=1;" parent="p3M71BiNu2Z15mBjnupE-38" vertex="1">
          <mxGeometry y="26" width="90" height="26" as="geometry" />
        </mxCell>
        <mxCell id="p3M71BiNu2Z15mBjnupE-40" value="-cells: Cell[][]" style="text;strokeColor=none;fillColor=none;align=left;verticalAlign=top;spacingLeft=4;spacingRight=4;overflow=hidden;rotatable=0;points=[[0,0.5],[1,0.5]];portConstraint=eastwest;whiteSpace=wrap;html=1;" parent="p3M71BiNu2Z15mBjnupE-38" vertex="1">
          <mxGeometry y="52" width="90" height="26" as="geometry" />
        </mxCell>
        <mxCell id="p3M71BiNu2Z15mBjnupE-41" value="SqShape" style="swimlane;fontStyle=0;childLayout=stackLayout;horizontal=1;startSize=26;fillColor=none;horizontalStack=0;resizeParent=1;resizeParentMax=0;resizeLast=0;collapsible=1;marginBottom=0;whiteSpace=wrap;html=1;" parent="1" vertex="1">
          <mxGeometry x="150" y="172" width="90" height="78" as="geometry" />
        </mxCell>
        <mxCell id="p3M71BiNu2Z15mBjnupE-42" value="-color: String;" style="text;strokeColor=none;fillColor=none;align=left;verticalAlign=top;spacingLeft=4;spacingRight=4;overflow=hidden;rotatable=0;points=[[0,0.5],[1,0.5]];portConstraint=eastwest;whiteSpace=wrap;html=1;" parent="p3M71BiNu2Z15mBjnupE-41" vertex="1">
          <mxGeometry y="26" width="90" height="26" as="geometry" />
        </mxCell>
        <mxCell id="p3M71BiNu2Z15mBjnupE-43" value="-cells: Cell[][]" style="text;strokeColor=none;fillColor=none;align=left;verticalAlign=top;spacingLeft=4;spacingRight=4;overflow=hidden;rotatable=0;points=[[0,0.5],[1,0.5]];portConstraint=eastwest;whiteSpace=wrap;html=1;" parent="p3M71BiNu2Z15mBjnupE-41" vertex="1">
          <mxGeometry y="52" width="90" height="26" as="geometry" />
        </mxCell>
        <mxCell id="p3M71BiNu2Z15mBjnupE-44" value="&lt;div&gt;TShape&lt;/div&gt;" style="swimlane;fontStyle=0;childLayout=stackLayout;horizontal=1;startSize=26;fillColor=none;horizontalStack=0;resizeParent=1;resizeParentMax=0;resizeLast=0;collapsible=1;marginBottom=0;whiteSpace=wrap;html=1;" parent="1" vertex="1">
          <mxGeometry x="470" y="36" width="90" height="78" as="geometry">
            <mxRectangle x="470" y="31" width="80" height="30" as="alternateBounds" />
          </mxGeometry>
        </mxCell>
        <mxCell id="p3M71BiNu2Z15mBjnupE-45" value="-color: String;" style="text;strokeColor=none;fillColor=none;align=left;verticalAlign=top;spacingLeft=4;spacingRight=4;overflow=hidden;rotatable=0;points=[[0,0.5],[1,0.5]];portConstraint=eastwest;whiteSpace=wrap;html=1;" parent="p3M71BiNu2Z15mBjnupE-44" vertex="1">
          <mxGeometry y="26" width="90" height="26" as="geometry" />
        </mxCell>
        <mxCell id="p3M71BiNu2Z15mBjnupE-46" value="-cells: Cell[][]" style="text;strokeColor=none;fillColor=none;align=left;verticalAlign=top;spacingLeft=4;spacingRight=4;overflow=hidden;rotatable=0;points=[[0,0.5],[1,0.5]];portConstraint=eastwest;whiteSpace=wrap;html=1;" parent="p3M71BiNu2Z15mBjnupE-44" vertex="1">
          <mxGeometry y="52" width="90" height="26" as="geometry" />
        </mxCell>
        <mxCell id="p3M71BiNu2Z15mBjnupE-47" value="IShape" style="swimlane;fontStyle=0;childLayout=stackLayout;horizontal=1;startSize=26;fillColor=none;horizontalStack=0;resizeParent=1;resizeParentMax=0;resizeLast=0;collapsible=1;marginBottom=0;whiteSpace=wrap;html=1;" parent="1" vertex="1">
          <mxGeometry x="250" y="172" width="90" height="78" as="geometry" />
        </mxCell>
        <mxCell id="p3M71BiNu2Z15mBjnupE-48" value="-color: String;" style="text;strokeColor=none;fillColor=none;align=left;verticalAlign=top;spacingLeft=4;spacingRight=4;overflow=hidden;rotatable=0;points=[[0,0.5],[1,0.5]];portConstraint=eastwest;whiteSpace=wrap;html=1;" parent="p3M71BiNu2Z15mBjnupE-47" vertex="1">
          <mxGeometry y="26" width="90" height="26" as="geometry" />
        </mxCell>
        <mxCell id="p3M71BiNu2Z15mBjnupE-49" value="-cells: Cell[][]" style="text;strokeColor=none;fillColor=none;align=left;verticalAlign=top;spacingLeft=4;spacingRight=4;overflow=hidden;rotatable=0;points=[[0,0.5],[1,0.5]];portConstraint=eastwest;whiteSpace=wrap;html=1;" parent="p3M71BiNu2Z15mBjnupE-47" vertex="1">
          <mxGeometry y="52" width="90" height="26" as="geometry" />
        </mxCell>
        <mxCell id="p3M71BiNu2Z15mBjnupE-53" value="" style="endArrow=block;dashed=1;endFill=0;endSize=12;html=1;rounded=0;exitX=0.5;exitY=0;exitDx=0;exitDy=0;entryX=1;entryY=1;entryDx=0;entryDy=0;" parent="1" source="p3M71BiNu2Z15mBjnupE-38" target="p3M71BiNu2Z15mBjnupE-8" edge="1">
          <mxGeometry width="160" relative="1" as="geometry">
            <mxPoint x="520" y="162" as="sourcePoint" />
            <mxPoint x="680" y="162" as="targetPoint" />
          </mxGeometry>
        </mxCell>
        <mxCell id="p3M71BiNu2Z15mBjnupE-54" value="" style="endArrow=block;dashed=1;endFill=0;endSize=12;html=1;rounded=0;exitX=0;exitY=0.5;exitDx=0;exitDy=0;entryX=1;entryY=0.5;entryDx=0;entryDy=0;" parent="1" source="p3M71BiNu2Z15mBjnupE-45" target="p3M71BiNu2Z15mBjnupE-8" edge="1">
          <mxGeometry width="160" relative="1" as="geometry">
            <mxPoint x="520" y="302" as="sourcePoint" />
            <mxPoint x="680" y="302" as="targetPoint" />
          </mxGeometry>
        </mxCell>
        <mxCell id="p3M71BiNu2Z15mBjnupE-55" value="" style="endArrow=block;dashed=1;endFill=0;endSize=12;html=1;rounded=0;exitX=0.5;exitY=0;exitDx=0;exitDy=0;entryX=0.5;entryY=1;entryDx=0;entryDy=0;" parent="1" source="p3M71BiNu2Z15mBjnupE-47" target="p3M71BiNu2Z15mBjnupE-8" edge="1">
          <mxGeometry width="160" relative="1" as="geometry">
            <mxPoint x="260" y="322" as="sourcePoint" />
            <mxPoint x="420" y="322" as="targetPoint" />
          </mxGeometry>
        </mxCell>
        <mxCell id="p3M71BiNu2Z15mBjnupE-57" value="" style="endArrow=block;dashed=1;endFill=0;endSize=12;html=1;rounded=0;exitX=0.5;exitY=0;exitDx=0;exitDy=0;entryX=0.75;entryY=1;entryDx=0;entryDy=0;" parent="1" source="p3M71BiNu2Z15mBjnupE-35" target="p3M71BiNu2Z15mBjnupE-8" edge="1">
          <mxGeometry width="160" relative="1" as="geometry">
            <mxPoint x="40" y="342" as="sourcePoint" />
            <mxPoint x="300" y="122" as="targetPoint" />
          </mxGeometry>
        </mxCell>
        <mxCell id="p3M71BiNu2Z15mBjnupE-58" value="" style="endArrow=block;dashed=1;endFill=0;endSize=12;html=1;rounded=0;exitX=0.5;exitY=0;exitDx=0;exitDy=0;entryX=0.25;entryY=1;entryDx=0;entryDy=0;" parent="1" source="p3M71BiNu2Z15mBjnupE-41" target="p3M71BiNu2Z15mBjnupE-8" edge="1">
          <mxGeometry width="160" relative="1" as="geometry">
            <mxPoint x="30" y="382" as="sourcePoint" />
            <mxPoint x="230" y="312" as="targetPoint" />
          </mxGeometry>
        </mxCell>
        <mxCell id="p3M71BiNu2Z15mBjnupE-59" value="&lt;p style=&quot;margin:0px;margin-top:4px;text-align:center;&quot;&gt;&lt;i&gt;&amp;lt;&amp;lt;Interface&amp;gt;&amp;gt;&lt;/i&gt;&lt;br&gt;&lt;b&gt;Screen&lt;/b&gt;&lt;/p&gt;&lt;hr size=&quot;1&quot; style=&quot;border-style:solid;&quot;&gt;&lt;p style=&quot;margin:0px;margin-left:4px;&quot;&gt;+hide(): void; +show(): void; +update(): void&lt;/p&gt;" style="verticalAlign=top;align=left;overflow=fill;html=1;whiteSpace=wrap;" parent="1" vertex="1">
          <mxGeometry x="785" y="26" width="190" height="98" as="geometry" />
        </mxCell>
        <mxCell id="p3M71BiNu2Z15mBjnupE-60" value="SettingsScreen" style="swimlane;fontStyle=0;childLayout=stackLayout;horizontal=1;startSize=26;fillColor=none;horizontalStack=0;resizeParent=1;resizeParentMax=0;resizeLast=0;collapsible=1;marginBottom=0;whiteSpace=wrap;html=1;" parent="1" vertex="1">
          <mxGeometry x="620" y="36" width="140" height="78" as="geometry" />
        </mxCell>
        <mxCell id="p3M71BiNu2Z15mBjnupE-61" value="-Enable Analytics: bool" style="text;strokeColor=none;fillColor=none;align=left;verticalAlign=top;spacingLeft=4;spacingRight=4;overflow=hidden;rotatable=0;points=[[0,0.5],[1,0.5]];portConstraint=eastwest;whiteSpace=wrap;html=1;" parent="p3M71BiNu2Z15mBjnupE-60" vertex="1">
          <mxGeometry y="26" width="140" height="26" as="geometry" />
        </mxCell>
        <mxCell id="p3M71BiNu2Z15mBjnupE-62" value="+ScreenId: int" style="text;strokeColor=none;fillColor=none;align=left;verticalAlign=top;spacingLeft=4;spacingRight=4;overflow=hidden;rotatable=0;points=[[0,0.5],[1,0.5]];portConstraint=eastwest;whiteSpace=wrap;html=1;" parent="p3M71BiNu2Z15mBjnupE-60" vertex="1">
          <mxGeometry y="52" width="140" height="26" as="geometry" />
        </mxCell>
        <mxCell id="p3M71BiNu2Z15mBjnupE-63" value="MainScreen" style="swimlane;fontStyle=0;childLayout=stackLayout;horizontal=1;startSize=26;fillColor=none;horizontalStack=0;resizeParent=1;resizeParentMax=0;resizeLast=0;collapsible=1;marginBottom=0;whiteSpace=wrap;html=1;" parent="1" vertex="1">
          <mxGeometry x="650" y="142" width="140" height="78" as="geometry" />
        </mxCell>
        <mxCell id="p3M71BiNu2Z15mBjnupE-64" value="-Enable Analytics: bool" style="text;strokeColor=none;fillColor=none;align=left;verticalAlign=top;spacingLeft=4;spacingRight=4;overflow=hidden;rotatable=0;points=[[0,0.5],[1,0.5]];portConstraint=eastwest;whiteSpace=wrap;html=1;" parent="p3M71BiNu2Z15mBjnupE-63" vertex="1">
          <mxGeometry y="26" width="140" height="26" as="geometry" />
        </mxCell>
        <mxCell id="p3M71BiNu2Z15mBjnupE-65" value="+ScreenId: int" style="text;strokeColor=none;fillColor=none;align=left;verticalAlign=top;spacingLeft=4;spacingRight=4;overflow=hidden;rotatable=0;points=[[0,0.5],[1,0.5]];portConstraint=eastwest;whiteSpace=wrap;html=1;" parent="p3M71BiNu2Z15mBjnupE-63" vertex="1">
          <mxGeometry y="52" width="140" height="26" as="geometry" />
        </mxCell>
        <mxCell id="p3M71BiNu2Z15mBjnupE-66" value="EndScreen" style="swimlane;fontStyle=0;childLayout=stackLayout;horizontal=1;startSize=26;fillColor=none;horizontalStack=0;resizeParent=1;resizeParentMax=0;resizeLast=0;collapsible=1;marginBottom=0;whiteSpace=wrap;html=1;" parent="1" vertex="1">
          <mxGeometry x="970" y="142" width="140" height="78" as="geometry" />
        </mxCell>
        <mxCell id="p3M71BiNu2Z15mBjnupE-67" value="-Enable Analytics: bool" style="text;strokeColor=none;fillColor=none;align=left;verticalAlign=top;spacingLeft=4;spacingRight=4;overflow=hidden;rotatable=0;points=[[0,0.5],[1,0.5]];portConstraint=eastwest;whiteSpace=wrap;html=1;" parent="p3M71BiNu2Z15mBjnupE-66" vertex="1">
          <mxGeometry y="26" width="140" height="26" as="geometry" />
        </mxCell>
        <mxCell id="p3M71BiNu2Z15mBjnupE-68" value="+ScreenId: int" style="text;strokeColor=none;fillColor=none;align=left;verticalAlign=top;spacingLeft=4;spacingRight=4;overflow=hidden;rotatable=0;points=[[0,0.5],[1,0.5]];portConstraint=eastwest;whiteSpace=wrap;html=1;" parent="p3M71BiNu2Z15mBjnupE-66" vertex="1">
          <mxGeometry y="52" width="140" height="26" as="geometry" />
        </mxCell>
        <mxCell id="p3M71BiNu2Z15mBjnupE-69" value="GameScreen" style="swimlane;fontStyle=0;childLayout=stackLayout;horizontal=1;startSize=26;fillColor=none;horizontalStack=0;resizeParent=1;resizeParentMax=0;resizeLast=0;collapsible=1;marginBottom=0;whiteSpace=wrap;html=1;" parent="1" vertex="1">
          <mxGeometry x="810" y="160" width="140" height="78" as="geometry" />
        </mxCell>
        <mxCell id="p3M71BiNu2Z15mBjnupE-70" value="-Enable Analytics: bool" style="text;strokeColor=none;fillColor=none;align=left;verticalAlign=top;spacingLeft=4;spacingRight=4;overflow=hidden;rotatable=0;points=[[0,0.5],[1,0.5]];portConstraint=eastwest;whiteSpace=wrap;html=1;" parent="p3M71BiNu2Z15mBjnupE-69" vertex="1">
          <mxGeometry y="26" width="140" height="26" as="geometry" />
        </mxCell>
        <mxCell id="p3M71BiNu2Z15mBjnupE-71" value="+ScreenId: int" style="text;strokeColor=none;fillColor=none;align=left;verticalAlign=top;spacingLeft=4;spacingRight=4;overflow=hidden;rotatable=0;points=[[0,0.5],[1,0.5]];portConstraint=eastwest;whiteSpace=wrap;html=1;" parent="p3M71BiNu2Z15mBjnupE-69" vertex="1">
          <mxGeometry y="52" width="140" height="26" as="geometry" />
        </mxCell>
        <mxCell id="p3M71BiNu2Z15mBjnupE-72" value="" style="endArrow=block;dashed=1;endFill=0;endSize=12;html=1;rounded=0;exitX=1;exitY=0.5;exitDx=0;exitDy=0;entryX=0;entryY=0.5;entryDx=0;entryDy=0;" parent="1" source="p3M71BiNu2Z15mBjnupE-61" target="p3M71BiNu2Z15mBjnupE-59" edge="1">
          <mxGeometry width="160" relative="1" as="geometry">
            <mxPoint x="520" y="290" as="sourcePoint" />
            <mxPoint x="680" y="290" as="targetPoint" />
          </mxGeometry>
        </mxCell>
        <mxCell id="p3M71BiNu2Z15mBjnupE-73" value="" style="endArrow=block;dashed=1;endFill=0;endSize=12;html=1;rounded=0;exitX=0.5;exitY=0;exitDx=0;exitDy=0;entryX=0;entryY=1;entryDx=0;entryDy=0;" parent="1" source="p3M71BiNu2Z15mBjnupE-63" target="p3M71BiNu2Z15mBjnupE-59" edge="1">
          <mxGeometry width="160" relative="1" as="geometry">
            <mxPoint x="520" y="290" as="sourcePoint" />
            <mxPoint x="680" y="290" as="targetPoint" />
          </mxGeometry>
        </mxCell>
        <mxCell id="p3M71BiNu2Z15mBjnupE-75" value="" style="endArrow=block;dashed=1;endFill=0;endSize=12;html=1;rounded=0;exitX=0.5;exitY=0;exitDx=0;exitDy=0;entryX=0.5;entryY=1;entryDx=0;entryDy=0;" parent="1" source="p3M71BiNu2Z15mBjnupE-69" target="p3M71BiNu2Z15mBjnupE-59" edge="1">
          <mxGeometry width="160" relative="1" as="geometry">
            <mxPoint x="560" y="290" as="sourcePoint" />
            <mxPoint x="720" y="290" as="targetPoint" />
          </mxGeometry>
        </mxCell>
        <mxCell id="p3M71BiNu2Z15mBjnupE-76" value="&lt;div&gt;AboutScreen&lt;/div&gt;" style="swimlane;fontStyle=0;childLayout=stackLayout;horizontal=1;startSize=26;fillColor=none;horizontalStack=0;resizeParent=1;resizeParentMax=0;resizeLast=0;collapsible=1;marginBottom=0;whiteSpace=wrap;html=1;" parent="1" vertex="1">
          <mxGeometry x="1000" y="36" width="140" height="78" as="geometry" />
        </mxCell>
        <mxCell id="p3M71BiNu2Z15mBjnupE-77" value="-Enable Analytics: bool" style="text;strokeColor=none;fillColor=none;align=left;verticalAlign=top;spacingLeft=4;spacingRight=4;overflow=hidden;rotatable=0;points=[[0,0.5],[1,0.5]];portConstraint=eastwest;whiteSpace=wrap;html=1;" parent="p3M71BiNu2Z15mBjnupE-76" vertex="1">
          <mxGeometry y="26" width="140" height="26" as="geometry" />
        </mxCell>
        <mxCell id="p3M71BiNu2Z15mBjnupE-78" value="+ScreenId: int" style="text;strokeColor=none;fillColor=none;align=left;verticalAlign=top;spacingLeft=4;spacingRight=4;overflow=hidden;rotatable=0;points=[[0,0.5],[1,0.5]];portConstraint=eastwest;whiteSpace=wrap;html=1;" parent="p3M71BiNu2Z15mBjnupE-76" vertex="1">
          <mxGeometry y="52" width="140" height="26" as="geometry" />
        </mxCell>
        <mxCell id="p3M71BiNu2Z15mBjnupE-79" value="" style="endArrow=block;dashed=1;endFill=0;endSize=12;html=1;rounded=0;exitX=0;exitY=0.5;exitDx=0;exitDy=0;entryX=1;entryY=0.5;entryDx=0;entryDy=0;" parent="1" source="p3M71BiNu2Z15mBjnupE-77" target="p3M71BiNu2Z15mBjnupE-59" edge="1">
          <mxGeometry width="160" relative="1" as="geometry">
            <mxPoint x="600" y="350" as="sourcePoint" />
            <mxPoint x="1010" y="360" as="targetPoint" />
          </mxGeometry>
        </mxCell>
        <mxCell id="p3M71BiNu2Z15mBjnupE-80" value="" style="endArrow=block;dashed=1;endFill=0;endSize=12;html=1;rounded=0;exitX=0.5;exitY=0;exitDx=0;exitDy=0;entryX=1;entryY=1;entryDx=0;entryDy=0;" parent="1" source="p3M71BiNu2Z15mBjnupE-66" target="p3M71BiNu2Z15mBjnupE-59" edge="1">
          <mxGeometry width="160" relative="1" as="geometry">
            <mxPoint x="1000" y="310" as="sourcePoint" />
            <mxPoint x="1160" y="310" as="targetPoint" />
          </mxGeometry>
        </mxCell>
        <mxCell id="p3M71BiNu2Z15mBjnupE-81" value="&lt;p style=&quot;margin:0px;margin-top:4px;text-align:center;&quot;&gt;&lt;b&gt;SoundManager&lt;/b&gt;&lt;/p&gt;&lt;hr size=&quot;1&quot; style=&quot;border-style:solid;&quot;&gt;&lt;p style=&quot;margin:0px;margin-left:4px;&quot;&gt;+setVolume(int val): void; +playEffect(String name): void; +mute(): void; +unmute(): void;&lt;/p&gt;" style="verticalAlign=top;align=left;overflow=fill;html=1;whiteSpace=wrap;" parent="1" vertex="1">
          <mxGeometry x="530" y="280" width="170" height="90" as="geometry" />
        </mxCell>
        <mxCell id="p3M71BiNu2Z15mBjnupE-89" value="&lt;p style=&quot;margin:0px;margin-top:4px;text-align:center;&quot;&gt;&lt;b&gt;ScoreManager&lt;/b&gt;&lt;/p&gt;" style="swimlane;fontStyle=1;align=center;verticalAlign=top;childLayout=stackLayout;horizontal=1;startSize=26;horizontalStack=0;resizeParent=1;resizeParentMax=0;resizeLast=0;collapsible=1;marginBottom=0;whiteSpace=wrap;html=1;" parent="1" vertex="1">
          <mxGeometry x="865" y="478" width="230" height="86" as="geometry" />
        </mxCell>
        <mxCell id="p3M71BiNu2Z15mBjnupE-90" value="-score: int" style="text;strokeColor=none;fillColor=none;align=left;verticalAlign=top;spacingLeft=4;spacingRight=4;overflow=hidden;rotatable=0;points=[[0,0.5],[1,0.5]];portConstraint=eastwest;whiteSpace=wrap;html=1;" parent="p3M71BiNu2Z15mBjnupE-89" vertex="1">
          <mxGeometry y="26" width="230" height="26" as="geometry" />
        </mxCell>
        <mxCell id="p3M71BiNu2Z15mBjnupE-91" value="" style="line;strokeWidth=1;fillColor=none;align=left;verticalAlign=middle;spacingTop=-1;spacingLeft=3;spacingRight=3;rotatable=0;labelPosition=right;points=[];portConstraint=eastwest;strokeColor=inherit;" parent="p3M71BiNu2Z15mBjnupE-89" vertex="1">
          <mxGeometry y="52" width="230" height="8" as="geometry" />
        </mxCell>
        <mxCell id="p3M71BiNu2Z15mBjnupE-92" value="+addScore(int lines): void; +reset(): void;" style="text;strokeColor=none;fillColor=none;align=left;verticalAlign=top;spacingLeft=4;spacingRight=4;overflow=hidden;rotatable=0;points=[[0,0.5],[1,0.5]];portConstraint=eastwest;whiteSpace=wrap;html=1;" parent="p3M71BiNu2Z15mBjnupE-89" vertex="1">
          <mxGeometry y="60" width="230" height="26" as="geometry" />
        </mxCell>
        <mxCell id="p3M71BiNu2Z15mBjnupE-93" value="&lt;p style=&quot;margin:0px;margin-top:4px;text-align:center;&quot;&gt;&lt;b&gt;LevelManager&lt;/b&gt;&lt;/p&gt;" style="swimlane;fontStyle=1;align=center;verticalAlign=top;childLayout=stackLayout;horizontal=1;startSize=26;horizontalStack=0;resizeParent=1;resizeParentMax=0;resizeLast=0;collapsible=1;marginBottom=0;whiteSpace=wrap;html=1;" parent="1" vertex="1">
          <mxGeometry x="840" y="310" width="110" height="100" as="geometry" />
        </mxCell>
        <mxCell id="p3M71BiNu2Z15mBjnupE-94" value="-level: int" style="text;strokeColor=none;fillColor=none;align=left;verticalAlign=top;spacingLeft=4;spacingRight=4;overflow=hidden;rotatable=0;points=[[0,0.5],[1,0.5]];portConstraint=eastwest;whiteSpace=wrap;html=1;" parent="p3M71BiNu2Z15mBjnupE-93" vertex="1">
          <mxGeometry y="26" width="110" height="26" as="geometry" />
        </mxCell>
        <mxCell id="p3M71BiNu2Z15mBjnupE-95" value="" style="line;strokeWidth=1;fillColor=none;align=left;verticalAlign=middle;spacingTop=-1;spacingLeft=3;spacingRight=3;rotatable=0;labelPosition=right;points=[];portConstraint=eastwest;strokeColor=inherit;" parent="p3M71BiNu2Z15mBjnupE-93" vertex="1">
          <mxGeometry y="52" width="110" height="8" as="geometry" />
        </mxCell>
        <mxCell id="p3M71BiNu2Z15mBjnupE-96" value="&lt;div&gt;+nextLevel(): void;&lt;/div&gt;&lt;div&gt;+getLevel(): int;&lt;/div&gt;" style="text;strokeColor=none;fillColor=none;align=left;verticalAlign=top;spacingLeft=4;spacingRight=4;overflow=hidden;rotatable=0;points=[[0,0.5],[1,0.5]];portConstraint=eastwest;whiteSpace=wrap;html=1;" parent="p3M71BiNu2Z15mBjnupE-93" vertex="1">
          <mxGeometry y="60" width="110" height="40" as="geometry" />
        </mxCell>
        <mxCell id="p3M71BiNu2Z15mBjnupE-98" value="&lt;p style=&quot;margin:0px;margin-top:4px;text-align:center;&quot;&gt;&lt;b&gt;ScreenManager&lt;/b&gt;&lt;/p&gt;" style="swimlane;fontStyle=1;align=center;verticalAlign=top;childLayout=stackLayout;horizontal=1;startSize=26;horizontalStack=0;resizeParent=1;resizeParentMax=0;resizeLast=0;collapsible=1;marginBottom=0;whiteSpace=wrap;html=1;" parent="1" vertex="1">
          <mxGeometry x="427.5" y="600" width="375" height="100" as="geometry" />
        </mxCell>
        <mxCell id="p3M71BiNu2Z15mBjnupE-99" value="-current: Screen; -screens:&amp;nbsp;Map&amp;lt;int, Screen&amp;gt;;" style="text;strokeColor=none;fillColor=none;align=left;verticalAlign=top;spacingLeft=4;spacingRight=4;overflow=hidden;rotatable=0;points=[[0,0.5],[1,0.5]];portConstraint=eastwest;whiteSpace=wrap;html=1;" parent="p3M71BiNu2Z15mBjnupE-98" vertex="1">
          <mxGeometry y="26" width="375" height="26" as="geometry" />
        </mxCell>
        <mxCell id="p3M71BiNu2Z15mBjnupE-100" value="" style="line;strokeWidth=1;fillColor=none;align=left;verticalAlign=middle;spacingTop=-1;spacingLeft=3;spacingRight=3;rotatable=0;labelPosition=right;points=[];portConstraint=eastwest;strokeColor=inherit;" parent="p3M71BiNu2Z15mBjnupE-98" vertex="1">
          <mxGeometry y="52" width="375" height="8" as="geometry" />
        </mxCell>
        <mxCell id="p3M71BiNu2Z15mBjnupE-101" value="&lt;p style=&quot;margin:0px;margin-left:4px;&quot;&gt;+changeTo(int screenId): void; addScreen(int id, Screen screen):&amp;nbsp;&lt;/p&gt;&lt;p style=&quot;margin:0px;margin-left:4px;&quot;&gt;void; removeScreen(int id);&lt;/p&gt;" style="text;strokeColor=none;fillColor=none;align=left;verticalAlign=top;spacingLeft=4;spacingRight=4;overflow=hidden;rotatable=0;points=[[0,0.5],[1,0.5]];portConstraint=eastwest;whiteSpace=wrap;html=1;" parent="p3M71BiNu2Z15mBjnupE-98" vertex="1">
          <mxGeometry y="60" width="375" height="40" as="geometry" />
        </mxCell>
        <mxCell id="p3M71BiNu2Z15mBjnupE-103" value="&lt;p style=&quot;margin:0px;margin-top:4px;text-align:center;&quot;&gt;CollisionManager&lt;/p&gt;" style="swimlane;fontStyle=1;align=center;verticalAlign=top;childLayout=stackLayout;horizontal=1;startSize=26;horizontalStack=0;resizeParent=1;resizeParentMax=0;resizeLast=0;collapsible=1;marginBottom=0;whiteSpace=wrap;html=1;" parent="1" vertex="1">
          <mxGeometry x="90" y="480" width="250" height="52" as="geometry" />
        </mxCell>
        <mxCell id="p3M71BiNu2Z15mBjnupE-104" value="+willCollide(Block block, Board board): bool" style="text;strokeColor=none;fillColor=none;align=left;verticalAlign=top;spacingLeft=4;spacingRight=4;overflow=hidden;rotatable=0;points=[[0,0.5],[1,0.5]];portConstraint=eastwest;whiteSpace=wrap;html=1;" parent="p3M71BiNu2Z15mBjnupE-103" vertex="1">
          <mxGeometry y="26" width="250" height="26" as="geometry" />
        </mxCell>
        <mxCell id="p3M71BiNu2Z15mBjnupE-111" value="GameManager" style="swimlane;fontStyle=1;align=center;verticalAlign=top;childLayout=stackLayout;horizontal=1;startSize=26;horizontalStack=0;resizeParent=1;resizeParentMax=0;resizeLast=0;collapsible=1;marginBottom=0;whiteSpace=wrap;html=1;" parent="1" vertex="1">
          <mxGeometry x="420" y="410" width="390" height="154" as="geometry">
            <mxRectangle x="660" y="302" width="120" height="30" as="alternateBounds" />
          </mxGeometry>
        </mxCell>
        <mxCell id="p3M71BiNu2Z15mBjnupE-112" value="&lt;div&gt;+&lt;b&gt;soundManager: SoundManager&lt;/b&gt;;&lt;/div&gt;&lt;div&gt;+&lt;b&gt;scoreManager: ScoreManager&lt;/b&gt;;&lt;/div&gt;&lt;div&gt;&lt;div&gt;+&lt;b&gt;levelManager: LevelManager&lt;/b&gt;;&lt;/div&gt;&lt;div&gt;&lt;div&gt;+&lt;b&gt;screenManager: ScreenManager&lt;/b&gt;;&lt;/div&gt;&lt;div&gt;&lt;div&gt;+&lt;b&gt;collisionManager: CollisionManager&lt;/b&gt;;&lt;/div&gt;&lt;div&gt;&lt;b&gt;+board Board;&lt;/b&gt;&lt;/div&gt;&lt;div&gt;&lt;div&gt;&lt;br&gt;&lt;/div&gt;&lt;br&gt;&lt;/div&gt;&lt;br&gt;&lt;/div&gt;&lt;br&gt;&lt;/div&gt;&lt;/div&gt;" style="text;strokeColor=none;fillColor=none;align=left;verticalAlign=top;spacingLeft=4;spacingRight=4;overflow=hidden;rotatable=0;points=[[0,0.5],[1,0.5]];portConstraint=eastwest;whiteSpace=wrap;html=1;" parent="p3M71BiNu2Z15mBjnupE-111" vertex="1">
          <mxGeometry y="26" width="390" height="94" as="geometry" />
        </mxCell>
        <mxCell id="p3M71BiNu2Z15mBjnupE-113" value="" style="line;strokeWidth=1;fillColor=none;align=left;verticalAlign=middle;spacingTop=-1;spacingLeft=3;spacingRight=3;rotatable=0;labelPosition=right;points=[];portConstraint=eastwest;strokeColor=inherit;" parent="p3M71BiNu2Z15mBjnupE-111" vertex="1">
          <mxGeometry y="120" width="390" height="8" as="geometry" />
        </mxCell>
        <mxCell id="p3M71BiNu2Z15mBjnupE-114" value="+generateBlock(): void; +start(): void; +pause(): void; +resume(): void;" style="text;strokeColor=none;fillColor=none;align=left;verticalAlign=top;spacingLeft=4;spacingRight=4;overflow=hidden;rotatable=0;points=[[0,0.5],[1,0.5]];portConstraint=eastwest;whiteSpace=wrap;html=1;" parent="p3M71BiNu2Z15mBjnupE-111" vertex="1">
          <mxGeometry y="128" width="390" height="26" as="geometry" />
        </mxCell>
        <mxCell id="p3M71BiNu2Z15mBjnupE-116" value="Board" style="swimlane;fontStyle=1;align=center;verticalAlign=top;childLayout=stackLayout;horizontal=1;startSize=26;horizontalStack=0;resizeParent=1;resizeParentMax=0;resizeLast=0;collapsible=1;marginBottom=0;whiteSpace=wrap;html=1;" parent="1" vertex="1">
          <mxGeometry x="160" y="320" width="230" height="100" as="geometry" />
        </mxCell>
        <mxCell id="p3M71BiNu2Z15mBjnupE-117" value="+width: int; +height: int; -cells: Cell[][]" style="text;strokeColor=none;fillColor=none;align=left;verticalAlign=top;spacingLeft=4;spacingRight=4;overflow=hidden;rotatable=0;points=[[0,0.5],[1,0.5]];portConstraint=eastwest;whiteSpace=wrap;html=1;" parent="p3M71BiNu2Z15mBjnupE-116" vertex="1">
          <mxGeometry y="26" width="230" height="24" as="geometry" />
        </mxCell>
        <mxCell id="p3M71BiNu2Z15mBjnupE-118" value="" style="line;strokeWidth=1;fillColor=none;align=left;verticalAlign=middle;spacingTop=-1;spacingLeft=3;spacingRight=3;rotatable=0;labelPosition=right;points=[];portConstraint=eastwest;strokeColor=inherit;" parent="p3M71BiNu2Z15mBjnupE-116" vertex="1">
          <mxGeometry y="50" width="230" height="8" as="geometry" />
        </mxCell>
        <mxCell id="p3M71BiNu2Z15mBjnupE-119" value="&lt;div&gt;+clearLines(): void; +placeBlock(): void;&amp;nbsp;&lt;/div&gt;&lt;div&gt;+checkState(): bool; +update(): void&lt;/div&gt;" style="text;strokeColor=none;fillColor=none;align=left;verticalAlign=top;spacingLeft=4;spacingRight=4;overflow=hidden;rotatable=0;points=[[0,0.5],[1,0.5]];portConstraint=eastwest;whiteSpace=wrap;html=1;" parent="p3M71BiNu2Z15mBjnupE-116" vertex="1">
          <mxGeometry y="58" width="230" height="42" as="geometry" />
        </mxCell>
        <mxCell id="p3M71BiNu2Z15mBjnupE-133" value="" style="endArrow=diamondThin;endFill=1;endSize=24;html=1;rounded=0;entryX=0.5;entryY=0;entryDx=0;entryDy=0;exitX=0.5;exitY=1;exitDx=0;exitDy=0;" parent="1" source="p3M71BiNu2Z15mBjnupE-81" target="p3M71BiNu2Z15mBjnupE-111" edge="1">
          <mxGeometry width="160" relative="1" as="geometry">
            <mxPoint x="480" y="390" as="sourcePoint" />
            <mxPoint x="640" y="390" as="targetPoint" />
          </mxGeometry>
        </mxCell>
        <mxCell id="p3M71BiNu2Z15mBjnupE-134" value="" style="endArrow=diamondThin;endFill=1;endSize=24;html=1;rounded=0;entryX=-0.002;entryY=0.252;entryDx=0;entryDy=0;entryPerimeter=0;exitX=0.997;exitY=0.625;exitDx=0;exitDy=0;exitPerimeter=0;" parent="1" source="p3M71BiNu2Z15mBjnupE-118" target="p3M71BiNu2Z15mBjnupE-112" edge="1">
          <mxGeometry width="160" relative="1" as="geometry">
            <mxPoint x="260" y="460" as="sourcePoint" />
            <mxPoint x="420" y="460" as="targetPoint" />
            <Array as="points">
              <mxPoint x="390" y="460" />
            </Array>
          </mxGeometry>
        </mxCell>
        <mxCell id="p3M71BiNu2Z15mBjnupE-135" value="" style="endArrow=diamondThin;endFill=1;endSize=24;html=1;rounded=0;exitX=0.999;exitY=-0.013;exitDx=0;exitDy=0;exitPerimeter=0;" parent="1" source="p3M71BiNu2Z15mBjnupE-104" edge="1">
          <mxGeometry width="160" relative="1" as="geometry">
            <mxPoint x="260" y="505.83" as="sourcePoint" />
            <mxPoint x="420" y="505.83" as="targetPoint" />
          </mxGeometry>
        </mxCell>
        <mxCell id="p3M71BiNu2Z15mBjnupE-136" value="" style="endArrow=diamondThin;endFill=1;endSize=24;html=1;rounded=0;entryX=0.5;entryY=1;entryDx=0;entryDy=0;exitX=0.5;exitY=0;exitDx=0;exitDy=0;" parent="1" source="p3M71BiNu2Z15mBjnupE-98" target="p3M71BiNu2Z15mBjnupE-111" edge="1">
          <mxGeometry width="160" relative="1" as="geometry">
            <mxPoint x="827" y="520" as="sourcePoint" />
            <mxPoint x="827" y="560" as="targetPoint" />
          </mxGeometry>
        </mxCell>
        <mxCell id="p3M71BiNu2Z15mBjnupE-137" value="" style="endArrow=diamondThin;endFill=1;endSize=24;html=1;rounded=0;exitX=0;exitY=0.25;exitDx=0;exitDy=0;" parent="1" source="p3M71BiNu2Z15mBjnupE-89" edge="1">
          <mxGeometry width="160" relative="1" as="geometry">
            <mxPoint x="850" y="486" as="sourcePoint" />
            <mxPoint x="810" y="500" as="targetPoint" />
          </mxGeometry>
        </mxCell>
        <mxCell id="p3M71BiNu2Z15mBjnupE-138" value="" style="endArrow=diamondThin;endFill=1;endSize=24;html=1;rounded=0;entryX=1.001;entryY=0.064;entryDx=0;entryDy=0;entryPerimeter=0;exitX=0;exitY=0.5;exitDx=0;exitDy=0;" parent="1" source="p3M71BiNu2Z15mBjnupE-94" target="p3M71BiNu2Z15mBjnupE-112" edge="1">
          <mxGeometry width="160" relative="1" as="geometry">
            <mxPoint x="880" y="446" as="sourcePoint" />
            <mxPoint x="880" y="470" as="targetPoint" />
            <Array as="points">
              <mxPoint x="840" y="440" />
            </Array>
          </mxGeometry>
        </mxCell>
      </root>
    </mxGraphModel>
  </diagram>
</mxfile>
